<?xml version="1.0" encoding="UTF-8"?>
<svg id="Layer_1" data-name="Layer 1" xmlns="http://www.w3.org/2000/svg" viewBox="0 0 36.82 36.83">
  <defs>
    <style>
      .cls-1 {
        fill: #000;
        stroke-width: 0px;
      }
    </style>
  </defs>
  <path class="cls-1" d="M34.79,0H2.03C1.49,0,.98.21.59.59c-.38.38-.59.9-.59,1.44v32.77c0,.54.21,1.06.59,1.44.38.38.9.59,1.44.59h17.63v-14.26h-4.79v-5.56h4.79v-4.1c0-4.76,2.91-7.35,7.15-7.35,1.43,0,2.86.07,4.29.22v4.97h-2.93c-2.31,0-2.76,1.1-2.76,2.71v3.55h5.5l-.72,5.56h-4.79v14.26h9.38c.54,0,1.05-.22,1.44-.6.38-.38.59-.9.6-1.44V2.03c0-.54-.21-1.05-.59-1.44-.38-.38-.89-.6-1.43-.6Z"/>
</svg>