<?xml version="1.0" encoding="UTF-8"?>
<svg id="Layer_1" data-name="Layer 1" xmlns="http://www.w3.org/2000/svg" viewBox="0 0 43.33 30.33">
  <defs>
    <style>
      .cls-1 {
        fill: #000;
        stroke-width: 0px;
      }
    </style>
  </defs>
  <path class="cls-1" d="M17.33,21.67l11.25-6.5-11.25-6.5v13ZM42.38,4.7c.28,1.02.48,2.38.61,4.12.15,1.73.22,3.23.22,4.53l.13,1.82c0,4.74-.35,8.23-.95,10.47-.54,1.95-1.8,3.21-3.75,3.75-1.02.28-2.88.48-5.74.61-2.82.15-5.4.22-7.78.22l-3.44.13c-9.08,0-14.73-.35-16.96-.95-1.95-.54-3.21-1.8-3.75-3.75-.28-1.02-.48-2.38-.61-4.12-.15-1.73-.22-3.23-.22-4.53l-.13-1.82C0,10.42.35,6.93.95,4.7c.54-1.95,1.8-3.21,3.75-3.75,1.02-.28,2.88-.48,5.74-.61,2.82-.15,5.4-.22,7.78-.22l3.45-.13c9.08,0,14.73.35,16.97.95,1.95.54,3.21,1.8,3.75,3.75Z"/>
</svg>