<?xml version="1.0" encoding="UTF-8"?>
<svg id="Layer_1" data-name="Layer 1" xmlns="http://www.w3.org/2000/svg" viewBox="0 0 37.5 36.67">
  <defs>
    <style>
      .cls-1 {
        fill: #000;
        stroke-width: 0px;
      }
    </style>
  </defs>
  <path class="cls-1" d="M18.75,13.79c-.92,0-1.82.27-2.58.77-.76.5-1.36,1.21-1.71,2.04-.35.83-.44,1.75-.26,2.63.18.88.62,1.69,1.27,2.33.65.64,1.48,1.07,2.38,1.24.9.18,1.84.09,2.69-.26.85-.34,1.58-.93,2.09-1.67.51-.75.78-1.63.78-2.53,0-.6-.12-1.19-.35-1.74-.23-.55-.58-1.05-1.01-1.47-.43-.42-.94-.76-1.51-.99-.56-.23-1.17-.35-1.78-.35ZM37.37,9.29c0-1.42-.28-2.82-.79-4.14-.38-.97-.96-1.85-1.71-2.58-.75-.73-1.65-1.3-2.64-1.67-1.35-.5-2.79-.76-4.24-.77-2.42-.13-3.13-.13-9.24-.13s-6.82,0-9.24.13c-1.45,0-2.88.27-4.24.77-.99.37-1.89.94-2.64,1.67-.75.73-1.33,1.61-1.71,2.58C.41,6.48.14,7.88.13,9.29c-.13,2.36-.13,3.06-.13,9.04s0,6.67.13,9.04c.02,1.42.29,2.83.79,4.16.37.97.96,1.84,1.71,2.57.75.74,1.65,1.31,2.64,1.67,1.35.5,2.79.76,4.24.77,2.42.13,3.13.13,9.24.13s6.83,0,9.24-.13c1.45,0,2.88-.27,4.24-.77.99-.36,1.9-.93,2.64-1.67.75-.73,1.33-1.6,1.71-2.57.51-1.33.78-2.74.79-4.16.13-2.36.13-3.06.13-9.04s0-6.67-.13-9.04ZM32.61,23.96c-.06,1.13-.31,2.25-.73,3.3-.36.88-.91,1.68-1.59,2.35-.69.67-1.5,1.2-2.4,1.56-1.09.39-2.23.61-3.39.64h-11.47c-1.16-.03-2.31-.25-3.39-.64-.93-.34-1.77-.88-2.46-1.58-.68-.66-1.2-1.45-1.54-2.33-.4-1.06-.62-2.18-.64-3.32v-11.22c.02-1.13.24-2.26.64-3.32.35-.91.9-1.73,1.61-2.4.68-.66,1.49-1.17,2.38-1.5,1.09-.39,2.23-.61,3.39-.64h11.47c1.16.03,2.31.25,3.39.64.93.34,1.77.88,2.46,1.58.68.66,1.2,1.45,1.54,2.33.4,1.06.62,2.18.66,3.32v5.61c0,3.78.13,4.16.08,5.61v.02ZM29.61,10.32c-.22-.59-.58-1.13-1.03-1.58-.46-.45-1.01-.79-1.61-1.01-.83-.28-1.71-.42-2.59-.4h-11.25c-.88,0-1.76.17-2.59.48-.6.21-1.14.54-1.6.97-.46.43-.81.95-1.05,1.52-.27.82-.41,1.67-.39,2.53v11c.02.86.18,1.72.49,2.53.22.59.58,1.13,1.03,1.58.46.45,1.01.79,1.61,1.01.8.29,1.64.45,2.49.48h11.25c.88,0,1.76-.17,2.59-.48.61-.22,1.16-.56,1.61-1.01s.81-.98,1.03-1.58c.31-.81.48-1.67.49-2.53v-11c0-.87-.16-1.72-.49-2.53v.02ZM18.75,25.34c-.94,0-1.87-.18-2.74-.53-.87-.35-1.66-.87-2.32-1.52-.66-.65-1.19-1.42-1.55-2.27s-.54-1.76-.54-2.68c0-1.39.42-2.74,1.21-3.89.79-1.15,1.91-2.05,3.22-2.58,1.31-.53,2.75-.67,4.14-.4,1.39.27,2.67.94,3.67,1.92,1,.98,1.68,2.23,1.96,3.59s.13,2.77-.42,4.05c-.54,1.28-1.47,2.37-2.65,3.14-1.18.77-2.57,1.17-3.98,1.17ZM26.25,12.7c-.41-.04-.8-.23-1.08-.54-.28-.3-.43-.7-.43-1.1s.15-.8.43-1.1c.28-.3.66-.49,1.08-.54.41.04.8.23,1.08.54.28.3.43.7.43,1.1s-.15.8-.43,1.1c-.28.3-.66.49-1.08.54Z"/>
</svg>