<?xml version="1.0" encoding="UTF-8"?>
<svg id="Layer_1" data-name="Layer 1" xmlns="http://www.w3.org/2000/svg" viewBox="0 0 39 39">
  <defs>
    <style>
      .cls-1 {
        fill: #000;
        stroke-width: 0px;
      }
    </style>
  </defs>
  <path class="cls-1" d="M19.5,0c-5.17,0-10.13,2.05-13.79,5.71C2.05,9.37,0,14.33,0,19.5s2.05,10.13,5.71,13.79c3.66,3.66,8.62,5.71,13.79,5.71s10.13-2.05,13.79-5.71c3.66-3.66,5.71-8.62,5.71-13.79s-2.05-10.13-5.71-13.79C29.63,2.05,24.67,0,19.5,0ZM28.44,28.12c-.17.27-.44.47-.75.55-.31.08-.64.02-.92-.14-4.58-2.8-10.34-3.43-17.13-1.88-.31.07-.64.02-.92-.16-.27-.17-.47-.44-.54-.76-.07-.31-.02-.64.16-.92.17-.27.44-.47.76-.54,7.43-1.7,13.8-.97,18.94,2.17.27.17.47.44.55.75.08.31.02.64-.14.92ZM30.83,22.82c-.21.34-.55.59-.94.68-.39.09-.81.03-1.15-.18-5.24-3.22-13.23-4.15-19.43-2.27-.38.09-.77.03-1.11-.16-.34-.19-.59-.51-.7-.88-.11-.37-.08-.77.09-1.12.17-.35.47-.62.83-.75,7.08-2.15,15.89-1.11,21.9,2.59.34.21.59.55.68.94.09.39.03.81-.18,1.15ZM31.03,17.29c-6.28-3.73-16.65-4.08-22.65-2.26-.46.14-.96.09-1.39-.14-.43-.23-.74-.62-.89-1.08-.14-.46-.09-.96.14-1.39.23-.43.62-.74,1.08-.89,6.89-2.09,18.34-1.69,25.57,2.61.42.25.72.65.84,1.12.12.47.05.97-.2,1.38-.25.42-.65.72-1.12.84-.47.12-.97.05-1.38-.2Z"/>
</svg>