<?xml version="1.0" encoding="UTF-8"?>
<svg id="Layer_1" data-name="Layer 1" xmlns="http://www.w3.org/2000/svg" viewBox="0 0 40 40">
  <defs>
    <style>
      .cls-1 {
        fill: #000;
        stroke-width: 0px;
      }
    </style>
  </defs>
  <path class="cls-1" d="M20,0c-3.96,0-7.82,1.17-11.11,3.37-3.29,2.2-5.85,5.32-7.37,8.98C0,16-.39,20.02.38,23.9c.77,3.88,2.68,7.44,5.47,10.24,2.8,2.8,6.36,4.7,10.24,5.47,3.88.77,7.9.38,11.56-1.14,3.65-1.51,6.78-4.08,8.98-7.37,2.2-3.29,3.37-7.16,3.37-11.11,0-5.3-2.11-10.39-5.86-14.14S25.3,0,20,0ZM31.88,15.43v1.29c0,.1-.02.2-.06.29-.04.09-.09.17-.17.24-.07.07-.15.12-.25.16-.09.04-.19.05-.29.05-2.11-.15-4.13-.92-5.81-2.22v9.46c0,1.05-.21,2.08-.61,3.05-.41.96-1,1.84-1.75,2.57-.75.75-1.65,1.35-2.63,1.75-.99.4-2.04.6-3.11.59-2.14,0-4.19-.84-5.72-2.34-.97-.98-1.67-2.2-2.03-3.53-.36-1.33-.37-2.74-.02-4.08.32-1.28.96-2.46,1.87-3.43.68-.83,1.53-1.49,2.49-1.94.97-.45,2.02-.69,3.09-.68h1.64v3.41c0,.1-.02.2-.06.29-.04.09-.1.17-.17.24-.07.07-.16.12-.26.14-.09.03-.19.04-.29.03-.95-.29-1.98-.19-2.86.26-.88.46-1.56,1.24-1.87,2.18-.32.94-.26,1.97.16,2.87s1.18,1.6,2.11,1.95c.54.31,1.14.49,1.76.53.48.02.96-.04,1.42-.18.76-.26,1.42-.74,1.89-1.4.47-.65.73-1.43.73-2.24V7.51c0-.09.02-.19.05-.28.04-.09.09-.17.16-.23.07-.07.15-.12.23-.16.09-.04.18-.05.28-.05h2.83c.18,0,.36.07.49.2.13.13.21.3.22.48.1.88.38,1.73.82,2.51.44.77,1.03,1.45,1.74,1.98.96.72,2.09,1.16,3.28,1.27.18.02.34.09.47.22.12.13.2.3.21.48v1.5Z"/>
</svg>